<svg xmlns="http://www.w3.org/2000/svg" viewBox="0 0 600 530" aria-hidden="true">
  <path d="M300 245C276 197 206 99 145 59 87 18 64 30 50 36c-16 8-20 43-20 57s7 114 11 131c14 57 64 77 116 71-76 12-90 83-14 97 140 25 141-91 157-133 16 42 17 158 157 133 76-14 62-85-14-97 52 6 102-14 116-71 4-17 11-117 11-131s-4-49-20-57c-14-6-37-18-95 23-61 40-131 138-155 186z"/>
  <path d="M300 372c-11 34-39 112-106 112h-1c-91-1-101-70-101-70s-2-45 37-64c22-11 51-9 80-4-38-6-71-24-82-66-5-18-11-115-11-131 0-14 4-49 20-57 14-6 37-18 95 23 61 40 131 138 155 186 24-48 94-146 155-186 58-41 81-29 95-23 16 8 20 43 20 57 0 16-6 113-11 131-11 42-44 60-82 66 29-5 58-7 80 4 39 19 37 64 37 64s-10 69-101 70h-1c-67 0-95-78-106-112z"/>
</svg>